<svg id="Layer_1" data-name="Layer 1" xmlns="http://www.w3.org/2000/svg" viewBox="0 0 1920 1080"><defs><style>.cls-1{fill:#1d1d1b;}.cls-2{fill:#00457c;}</style></defs><title>LOGO_CURY_Redesign_04</title><path class="cls-1" d="M788.52,636a17.89,17.89,0,0,1-9.39-2.25,11.55,11.55,0,0,1-4.73-5.16,13.48,13.48,0,0,1-1.29-5.84V621.7a13.4,13.4,0,0,1,1.29-5.88,11.63,11.63,0,0,1,4.73-5.09,18.74,18.74,0,0,1,9.39-2.15h1.65q7.73,0,11.64,3.37a9,9,0,0,1,2.47,3.3,9.92,9.92,0,0,1,.79,3.87v.07h-7.6a9.94,9.94,0,0,0-.32-1,4.15,4.15,0,0,0-1.22-1.6,7.71,7.71,0,0,0-2.36-1.3,12.37,12.37,0,0,0-4.23-.58c-3,0-5.28.76-6.73,2.26a6,6,0,0,0-1.38,2.28,8.22,8.22,0,0,0-.45,2.7v.5a8,8,0,0,0,.45,2.63,6.5,6.5,0,0,0,1.41,2.35c1.51,1.67,3.75,2.51,6.74,2.51s5.24-.68,6.7-2a5,5,0,0,0,1-1.44,3.48,3.48,0,0,0,.36-1.21h7.6v.1a10.06,10.06,0,0,1-.77,3.82,9.17,9.17,0,0,1-2.42,3.35,13.46,13.46,0,0,1-4.78,2.6,22.64,22.64,0,0,1-6.93.94Z"/><path class="cls-1" d="M841.1,608.55a22.13,22.13,0,0,1,7.6,1.16,13.23,13.23,0,0,1,5.09,3.21,11.67,11.67,0,0,1,2.52,4.12,13.9,13.9,0,0,1,.81,4.66v1.07a14,14,0,0,1-.81,4.64,11.66,11.66,0,0,1-2.52,4.14,13.44,13.44,0,0,1-5.13,3.31,21.26,21.26,0,0,1-7.56,1.2h-1.57a19.62,19.62,0,0,1-9.67-2.18,11.54,11.54,0,0,1-5-5.13,13.05,13.05,0,0,1-1.39-6V621.7a13.1,13.1,0,0,1,1.39-6,11.33,11.33,0,0,1,5-5.05,20,20,0,0,1,9.67-2.11ZM849.45,622a7,7,0,0,0-1.75-4.91q-2.26-2.43-7.38-2.43T833,617.07a6.9,6.9,0,0,0-1.79,4.91v.5a8.13,8.13,0,0,0,.43,2.62,6,6,0,0,0,1.4,2.29c1.57,1.7,4,2.54,7.31,2.54s5.85-.84,7.38-2.54a7,7,0,0,0,1.75-4.91Z"/><path class="cls-1" d="M900,635.63l-15.9-17.27v17.27h-7.2V609h7.59L900,626.14V609h7.17v26.65Z"/><path class="cls-1" d="M941,636.1a21.84,21.84,0,0,1-9.17-1.58,8.31,8.31,0,0,1-3.94-3.58,7.85,7.85,0,0,1-.83-3.69v-.4h8a3.33,3.33,0,0,0,1.07,2.37q1.47,1.47,5.2,1.47h.25q3.69,0,5.23-1a2.4,2.4,0,0,0,1-2.15,2.08,2.08,0,0,0-1.08-1.94,11.36,11.36,0,0,0-4.37-.82l-3.54-.11q-6.14-.21-9-2.51a6.34,6.34,0,0,1-2.51-5.26v-.32a6.5,6.5,0,0,1,2.51-5.52c2.12-1.58,5.71-2.36,10.74-2.36h1.22q7.89,0,11.14,2.57a6.34,6.34,0,0,1,2.26,5.23v.4h-7.92a4,4,0,0,0-.34-1.06,2.41,2.41,0,0,0-.77-.88,9.1,9.1,0,0,0-4.87-1h-.36a12.39,12.39,0,0,0-4.69.61,1.94,1.94,0,0,0-.14,3.48,10.11,10.11,0,0,0,4.15.82L944,619q6.7.25,9.46,2.4a6.42,6.42,0,0,1,2.33,5.41v.43a7.51,7.51,0,0,1-2.37,5.91q-3.33,3-11.35,3Z"/><path class="cls-1" d="M983.72,635.63V615.07H973.4V609h28v6.09H991.06v20.56Z"/><path class="cls-1" d="M1048.55,625.15a6.63,6.63,0,0,1,1.51,4.57v2.76a10.23,10.23,0,0,0,.14,2.08,4.22,4.22,0,0,0,.29.89v.18h-7.63q-.1-.36-.15-.57a5.67,5.67,0,0,1-.1-1.29v-2.19a5.44,5.44,0,0,0-1.13-3.83c-.75-.79-2-1.18-3.85-1.18H1028v9.06h-7.38V609h17.95c4.48,0,7.64.82,9.45,2.47a6,6,0,0,1,1.83,4.66v.35a5.88,5.88,0,0,1-1.52,4.11,7.69,7.69,0,0,1-4.1,2.24A7.92,7.92,0,0,1,1048.55,625.15ZM1028,620.51h10.28a4.45,4.45,0,0,0,3-.86,2.44,2.44,0,0,0,.79-2v-.07a2.46,2.46,0,0,0-.79-2,4.62,4.62,0,0,0-3-.79H1028Z"/><path class="cls-1" d="M1074.92,633.7a10.11,10.11,0,0,1-4.08-5.34,17.11,17.11,0,0,1-.9-5.84V609h7.38v13.36a7.94,7.94,0,0,0,1.29,4.84q1.91,2.58,6.34,2.58h.18q4.51,0,6.34-2.58a8.41,8.41,0,0,0,1.22-4.84V609H1100v13.54a17.42,17.42,0,0,1-.93,5.87,10.72,10.72,0,0,1-4.19,5.31c-2.32,1.55-5.43,2.32-9.35,2.32h-1Q1078.43,636,1074.92,633.7Z"/><path class="cls-1" d="M1129.44,635.63V615.07h-10.32V609h28v6.09h-10.31v20.56Z"/><path class="cls-1" d="M1181.89,608.55a22.11,22.11,0,0,1,7.59,1.16,13.23,13.23,0,0,1,5.09,3.21,11.53,11.53,0,0,1,2.52,4.12,13.9,13.9,0,0,1,.81,4.66v1.07a14,14,0,0,1-.81,4.64,11.52,11.52,0,0,1-2.52,4.14,13.4,13.4,0,0,1-5.12,3.31,21.3,21.3,0,0,1-7.56,1.2h-1.58a19.64,19.64,0,0,1-9.67-2.18,11.47,11.47,0,0,1-4.94-5.13,12.94,12.94,0,0,1-1.4-6V621.7a13,13,0,0,1,1.4-6,11.31,11.31,0,0,1,4.94-5.05,20,20,0,0,1,9.67-2.11Zm8.34,13.43a7,7,0,0,0-1.75-4.91q-2.26-2.43-7.38-2.43c-3.35,0-5.79.81-7.34,2.43A6.86,6.86,0,0,0,1172,622v.5a8.41,8.41,0,0,0,.43,2.62,6.11,6.11,0,0,0,1.4,2.29c1.58,1.7,4,2.54,7.31,2.54s5.85-.84,7.38-2.54a7,7,0,0,0,1.75-4.91Z"/><path class="cls-1" d="M1245.54,625.15a6.63,6.63,0,0,1,1.51,4.57v2.76a10.23,10.23,0,0,0,.14,2.08,4.22,4.22,0,0,0,.29.89v.18h-7.63a4.56,4.56,0,0,1-.14-.57,5,5,0,0,1-.11-1.29v-2.19a5.44,5.44,0,0,0-1.13-3.83c-.75-.79-2-1.18-3.85-1.18H1225v9.06h-7.38V609h17.95q6.73,0,9.45,2.47a6,6,0,0,1,1.83,4.66v.35a5.88,5.88,0,0,1-1.52,4.11,7.69,7.69,0,0,1-4.1,2.24A7.92,7.92,0,0,1,1245.54,625.15ZM1225,620.51h10.28a4.45,4.45,0,0,0,3-.86,2.44,2.44,0,0,0,.79-2v-.07a2.46,2.46,0,0,0-.79-2,4.62,4.62,0,0,0-3-.79H1225Z"/><path class="cls-1" d="M1290.36,635.63l-2.19-4.94h-14.4l-2.15,4.94h-7.41L1276,609h9.89l12.36,26.65Zm-4.66-10.42-4.83-10.86-4.7,10.86Z"/><path class="cls-2" d="M937.19,547.53c0,9.56,5.18,17.24,15.52,22.79s24.4,8.43,42.17,8.43,32-2.83,42.37-8.43,15.5-13.23,15.5-22.79V508.72h13.72V491.65h-64.19v17.07h14.38v35.84a11.37,11.37,0,0,1-5.51,10.05c-3.72,2.31-9,3.44-16.27,3.44s-12.52-1.13-16.25-3.44a11.38,11.38,0,0,1-5.5-10.05V508.72h14.48V491.65H923.17v17.07h14Zm-59.26-1.79a34.81,34.81,0,0,1-13.79,9.31,58.18,58.18,0,0,1-19.49,3q-15.48,0-25.66-6.75c-6.86-4.45-10.25-10-10.25-16.89s3.47-12.74,10.41-17.17,15.83-6.63,26.76-6.63c8.05,0,15,1.18,20.68,3.55a26.61,26.61,0,0,1,12.79,10.43h35V491.65H882.07v7.69a51.32,51.32,0,0,0-16.51-6.93,87.23,87.23,0,0,0-21.08-2.4,125.18,125.18,0,0,0-26.67,2.74,89.76,89.76,0,0,0-22.35,8c-8.14,4.45-14.24,9.56-18.47,15.18a30.83,30.83,0,0,0-6.27,18.46,30.13,30.13,0,0,0,6.36,18.34c4.14,5.71,10.34,10.74,18.38,15.17A85,85,0,0,0,817.81,576a125.23,125.23,0,0,0,26.67,2.71c17.35,0,32.43-3,45.14-8.78s21.67-14,26.69-24.23Zm356.28,31.32V560h14v-14.4l-40-36.85h-10.78V491.65h60.77v17.07H1247l20,20.3,19.74-20.3H1275.8V491.65h59.27v17.07h-10.6L1284,545.57V560h14.64v17.09ZM1124.7,508.72h14.14c6.55,0,11.44.77,14.48,2.21s4.75,3.76,4.75,6.83-1.6,5.38-4.75,6.91-7.93,2.21-14.48,2.21H1124.7Zm-49.94,68.34h61V560H1124.7V540.81h11.11c7.2,0,12.12.93,14.83,2.79s4,6.42,4,13.57v19.89H1203V560h-12.55V545.23c0-3.49-1.09-6-3.47-7.85s-7-3.25-13.72-4.52c8-1.86,13.72-4.25,17.46-7.34a14.28,14.28,0,0,0,5.59-11.68c0-6.57-3.39-11.87-10.08-16s-15.42-6.15-26.17-6.15h-85.27v17.07h13.89V560h-13.89Z"/><path class="cls-2" d="M653.35,502c-10.2-2.76-20.41-5.59-30.76-8.33s-20.84-5.55-31.37-8.31a168.23,168.23,0,0,1,7.7-17.33c10,2.83,20.08,5.65,30.06,8.55s19.72,5.77,29.55,8.6c8.49-4.55,17.25-9.28,26.19-13.94s18.35-9.49,27.84-14.27q14.81-7.43,30.32-14.9,15.81-7.57,32.32-15.33c-6,6.55-11.54,13.07-16.62,19.4-9.91,4.93-19.66,9.76-29.1,14.61s-18.57,9.48-27.39,14.22c-8.6,4.6-17,9.1-25.15,13.66s-15.93,9-23.59,13.37m-3.09,33.8c12.52-8.19,25.57-16.62,39.48-25,14.45-8.7,29.71-17.37,45.75-26.38,2.71-5.78,5.67-11.65,9-17.66-8.89,4.66-17.54,9.34-26,13.89s-16.53,9.06-24.49,13.53c-15.32,8.68-29.8,17.46-43.54,25.89-10.53-2.71-21-5.49-31.71-8.15s-21.6-5.4-32.41-8.05a138.22,138.22,0,0,0-1.49,16c11.13,2.62,22.21,5.24,33.14,7.89s21.61,5.33,32.19,8.07m4.8,32c-10.65-2.66-21.4-5.38-32.42-8S600.31,554.63,589,552c-1.23-4.92-2.23-9.88-3-15,11.3,2.6,22.53,5.17,33.56,7.77s21.8,5.34,32.47,8c11.2-7.9,23-16,35.51-24.13,13-8.37,26.71-16.76,41.09-25.32-1.48,5.56-2.72,11-3.71,16.45-13.11,8.34-25.62,16.49-37.43,24.61-11.41,7.83-22.09,15.71-32.41,23.37m11.45,30.6c8.11-7.22,16.61-14.6,25.89-22,9.58-7.6,19.81-15.22,30.63-23-.16-5.21-.23-10.43,0-15.7-11.8,8-23.16,15.94-33.81,23.76-10.25,7.61-19.85,15.21-28.92,22.66-10.75-2.66-21.56-5.39-32.47-8-11.15-2.65-22.4-5.17-33.75-7.76,1.8,4.82,3.85,9.59,6,14.37,11.3,2.56,22.5,5.12,33.68,7.72s21.94,5.28,32.85,7.93m19.86,28.67c-11.52-2.51-23.1-5-34.58-7.48s-23.09-5.07-34.72-7.57c-3.21-4.49-6.18-9.06-9-13.66q17.19,3.81,34.13,7.67c11.19,2.54,22.38,5.14,33.57,7.73,6.79-6.83,14.06-14,22-21.07,8.46-7.38,17.49-14.72,27.08-22.27,1,5,2.23,10,3.59,14.89-8.49,7.27-16.42,14.33-23.59,21.43-6.82,6.83-12.9,13.66-18.53,20.33m30.94,26.23a131.63,131.63,0,0,1,10.19-18.45,203.79,203.79,0,0,1,15.56-19.67c-3-4.61-5.67-9.15-8.17-13.88-7.11,7-13.73,13.77-19.52,20.61a184.09,184.09,0,0,0-14.23,19.34C689,638.84,677,636.45,665,634s-23.87-4.77-35.83-7.22c4.13,4.34,8.53,8.55,13.18,12.72,12.3,2.34,24.59,4.69,37.09,7s25.2,4.51,37.89,6.78"/></svg>